<svg width="40" height="40" viewBox="0 0 40 40" fill="none" xmlns="http://www.w3.org/2000/svg">
<mask id="mask0_3296_3480" style="mask-type:alpha" maskUnits="userSpaceOnUse" x="4" y="4" width="32" height="32">
<rect x="4" y="4" width="32" height="32" fill="#D9D9D9"/>
</mask>
<g mask="url(#mask0_3296_3480)">
<path d="M26.1693 21H11C10.7162 21 10.4787 20.9042 10.2873 20.7127C10.0958 20.5213 10 20.2838 10 20C10 19.7162 10.0958 19.4787 10.2873 19.2873C10.4787 19.0958 10.7162 19 11 19H26.1693L19.277 12.1077C19.0788 11.9095 18.9809 11.6775 18.9833 11.4117C18.986 11.1459 19.0907 10.9096 19.2973 10.7027C19.5042 10.5096 19.7384 10.4096 20 10.4027C20.2616 10.3958 20.4958 10.4958 20.7027 10.7027L29.1563 19.1563C29.2812 19.2812 29.3692 19.4129 29.4203 19.5513C29.4717 19.6898 29.4973 19.8393 29.4973 20C29.4973 20.1607 29.4717 20.3102 29.4203 20.4487C29.3692 20.5871 29.2812 20.7188 29.1563 20.8437L20.7027 29.2973C20.518 29.482 20.2893 29.5765 20.0167 29.5807C19.744 29.5849 19.5042 29.4905 19.2973 29.2973C19.0907 29.0905 18.9873 28.8529 18.9873 28.5847C18.9873 28.3162 19.0907 28.0786 19.2973 27.8717L26.1693 21Z" fill="#3DCFB6"/>
</g>
</svg>
