<svg width="26" height="37" viewBox="0 0 26 37" fill="none" xmlns="http://www.w3.org/2000/svg">
<mask id="path-1-outside-1_1_4" maskUnits="userSpaceOnUse" x="-0.713845" y="-1.00785" width="27.4635" height="37.243" fill="black">
<rect fill="white" x="-0.713845" y="-1.00785" width="27.4635" height="37.243"/>
<path d="M13.6622 19.1469L5.01412 19.2257L4.92163 15.5936L12.7729 15.5221C14.0697 15.5103 15.1997 15.2812 16.1629 14.8349C17.1261 14.3886 17.8683 13.7568 18.3893 12.9396C18.9257 12.1065 19.1868 11.1197 19.1725 9.9792C19.1568 8.7293 18.9019 7.71596 18.4077 6.93919C17.929 6.14664 17.1952 5.57518 16.2063 5.2248C15.2329 4.85865 13.9962 4.68241 12.4963 4.69607L5.84031 4.7567L6.22231 35.1762L1.69906 35.2174L1.27056 1.09507L12.4498 0.993242C14.1997 0.977302 15.7644 1.14274 17.1439 1.48957C18.5231 1.82076 19.694 2.35699 20.6565 3.09825C21.6344 3.82375 22.3805 4.75448 22.8948 5.89046C23.4092 7.02645 23.6763 8.39125 23.6963 9.98487C23.714 11.391 23.3706 12.6676 22.6662 13.8147C21.9616 14.9462 20.9732 15.8771 19.7011 16.6074C18.4445 17.3377 16.966 17.8121 15.2655 18.0307L13.6622 19.1469ZM13.6517 35.1085L3.43336 35.2016L5.94174 31.4989L13.6055 31.4291C15.0429 31.416 16.2585 31.1549 17.2522 30.6459C18.2615 30.1367 19.026 29.4265 19.5459 28.5155C20.0655 27.5889 20.3175 26.5006 20.3018 25.2507C20.2859 23.9852 20.0456 22.8936 19.581 21.9759C19.1163 21.0582 18.3964 20.3538 17.4215 19.8627C16.4465 19.3716 15.1934 19.133 13.6622 19.1469L7.21715 19.2056L7.21841 15.5727L16.0305 15.4924L17.0079 16.796C18.6502 16.9217 20.0467 17.3778 21.1973 18.1642C22.3477 18.935 23.2274 19.927 23.8364 21.1402C24.4611 22.3533 24.7826 23.6942 24.8011 25.1629C24.8277 27.2877 24.3816 29.0887 23.4625 30.5659C22.559 32.0273 21.2683 33.1484 19.5904 33.9294C17.9124 34.6947 15.9328 35.0877 13.6517 35.1085Z"/>
</mask>
<path d="M13.6622 19.1469L5.01412 19.2257L4.92163 15.5936L12.7729 15.5221C14.0697 15.5103 15.1997 15.2812 16.1629 14.8349C17.1261 14.3886 17.8683 13.7568 18.3893 12.9396C18.9257 12.1065 19.1868 11.1197 19.1725 9.9792C19.1568 8.7293 18.9019 7.71596 18.4077 6.93919C17.929 6.14664 17.1952 5.57518 16.2063 5.2248C15.2329 4.85865 13.9962 4.68241 12.4963 4.69607L5.84031 4.7567L6.22231 35.1762L1.69906 35.2174L1.27056 1.09507L12.4498 0.993242C14.1997 0.977302 15.7644 1.14274 17.1439 1.48957C18.5231 1.82076 19.694 2.35699 20.6565 3.09825C21.6344 3.82375 22.3805 4.75448 22.8948 5.89046C23.4092 7.02645 23.6763 8.39125 23.6963 9.98487C23.714 11.391 23.3706 12.6676 22.6662 13.8147C21.9616 14.9462 20.9732 15.8771 19.7011 16.6074C18.4445 17.3377 16.966 17.8121 15.2655 18.0307L13.6622 19.1469ZM13.6517 35.1085L3.43336 35.2016L5.94174 31.4989L13.6055 31.4291C15.0429 31.416 16.2585 31.1549 17.2522 30.6459C18.2615 30.1367 19.026 29.4265 19.5459 28.5155C20.0655 27.5889 20.3175 26.5006 20.3018 25.2507C20.2859 23.9852 20.0456 22.8936 19.581 21.9759C19.1163 21.0582 18.3964 20.3538 17.4215 19.8627C16.4465 19.3716 15.1934 19.133 13.6622 19.1469L7.21715 19.2056L7.21841 15.5727L16.0305 15.4924L17.0079 16.796C18.6502 16.9217 20.0467 17.3778 21.1973 18.1642C22.3477 18.935 23.2274 19.927 23.8364 21.1402C24.4611 22.3533 24.7826 23.6942 24.8011 25.1629C24.8277 27.2877 24.3816 29.0887 23.4625 30.5659C22.559 32.0273 21.2683 33.1484 19.5904 33.9294C17.9124 34.6947 15.9328 35.0877 13.6517 35.1085Z" fill="#3DCFB6"/>
<path d="M13.6622 19.1469L13.6748 20.1468L13.983 20.144L14.2355 19.9682L13.6622 19.1469ZM5.01412 19.2257L4.0144 19.2477L4.03954 20.2346L5.02667 20.2256L5.01412 19.2257ZM4.92163 15.5936L4.90907 14.5937L3.89613 14.6029L3.92191 15.6156L4.92163 15.5936ZM18.3893 12.9396L17.5479 12.3961L17.5455 12.4L18.3893 12.9396ZM18.4077 6.93919L17.5522 7.45402L17.5582 7.46399L17.5644 7.47383L18.4077 6.93919ZM16.2063 5.2248L15.857 6.16058L15.8661 6.16398L15.8752 6.16721L16.2063 5.2248ZM5.84031 4.7567L5.82775 3.75678L4.82779 3.76589L4.84035 4.76581L5.84031 4.7567ZM6.22231 35.1762L6.23486 36.1761L7.23482 36.167L7.22227 35.1671L6.22231 35.1762ZM1.69906 35.2174L0.699099 35.2265L0.711656 36.2264L1.71161 36.2173L1.69906 35.2174ZM1.27056 1.09507L1.258 0.0951502L0.25804 0.104259L0.270597 1.10418L1.27056 1.09507ZM17.1439 1.48957L16.9031 2.45935L16.9135 2.46184L17.1439 1.48957ZM20.6565 3.09825L20.048 3.88969L20.0552 3.89521L20.0624 3.9006L20.6565 3.09825ZM22.6662 13.8147L23.5156 14.3454L23.5189 14.3401L22.6662 13.8147ZM19.7011 16.6074L19.2009 15.7398L19.1963 15.7424L19.7011 16.6074ZM15.2655 18.0307L15.1346 17.0389L14.8924 17.07L14.6922 17.2094L15.2655 18.0307ZM3.43336 35.2016L2.6048 34.6388L1.53435 36.2189L3.44592 36.2015L3.43336 35.2016ZM5.94174 31.4989L5.92918 30.499L5.40609 30.5038L5.11317 30.9361L5.94174 31.4989ZM17.2522 30.6459L16.7992 29.7528L16.7937 29.7556L17.2522 30.6459ZM19.5459 28.5155L20.4149 29.0134L20.4186 29.0069L19.5459 28.5155ZM7.21715 19.2056L6.21711 19.2018L6.21676 20.2148L7.22971 20.2055L7.21715 19.2056ZM7.21841 15.5727L7.20585 14.5727L6.21871 14.5817L6.21837 15.5689L7.21841 15.5727ZM16.0305 15.4924L16.83 14.8944L16.5252 14.4879L16.018 14.4925L16.0305 15.4924ZM17.0079 16.796L16.2085 17.3941L16.4816 17.7584L16.935 17.7931L17.0079 16.796ZM21.1973 18.1642L20.6349 18.9891L20.6426 18.9943L21.1973 18.1642ZM23.8364 21.1402L22.9429 21.5864L22.9476 21.5956L23.8364 21.1402ZM23.4625 30.5659L22.6129 30.0355L22.6114 30.0379L23.4625 30.5659ZM19.5904 33.9294L20.008 34.8394L20.015 34.8362L19.5904 33.9294ZM13.6496 18.147L5.00156 18.2258L5.02667 20.2256L13.6748 20.1468L13.6496 18.147ZM6.01383 19.2037L5.92134 15.5716L3.92191 15.6156L4.0144 19.2477L6.01383 19.2037ZM4.93419 16.5935L12.7854 16.522L12.7603 14.5221L4.90907 14.5937L4.93419 16.5935ZM12.7854 16.522C14.1936 16.5092 15.469 16.26 16.5859 15.7425L15.7399 13.9274C14.9304 14.3024 13.9458 14.5113 12.7603 14.5221L12.7854 16.522ZM16.5859 15.7425C17.7047 15.2241 18.6002 14.4719 19.2331 13.4791L17.5455 12.4C17.1363 13.0418 16.5476 13.5532 15.7399 13.9274L16.5859 15.7425ZM19.2306 13.483C19.8882 12.4619 20.1888 11.2765 20.1724 9.97009L18.1725 9.98831C18.1848 10.963 17.9633 11.7511 17.5479 12.3961L19.2306 13.483ZM20.1724 9.97009C20.1552 8.59875 19.8751 7.38563 19.2509 6.40455L17.5644 7.47383C17.9286 8.0463 18.1584 8.85985 18.1725 9.98831L20.1724 9.97009ZM19.2632 6.42435C18.6484 5.40655 17.7142 4.69937 16.5374 4.28239L15.8752 6.16721C16.6761 6.45099 17.2095 6.88674 17.5522 7.45402L19.2632 6.42435ZM16.5556 4.28902C15.4273 3.86461 14.0569 3.68182 12.4837 3.69615L12.5088 5.696C13.9355 5.683 15.0385 5.8527 15.857 6.16058L16.5556 4.28902ZM12.4837 3.69615L5.82775 3.75678L5.85286 5.75662L12.5088 5.696L12.4837 3.69615ZM4.84035 4.76581L5.22235 35.1853L7.22227 35.1671L6.84026 4.74759L4.84035 4.76581ZM6.20975 34.1763L1.6865 34.2175L1.71161 36.2173L6.23486 36.1761L6.20975 34.1763ZM2.69902 35.2083L2.27051 1.08596L0.270597 1.10418L0.699099 35.2265L2.69902 35.2083ZM1.28311 2.09499L12.4623 1.99316L12.4372 -0.00667945L1.258 0.0951502L1.28311 2.09499ZM12.4623 1.99316C14.1458 1.97783 15.623 2.13744 16.9031 2.45929L17.3846 0.519838C15.9058 0.148047 14.2536 -0.0232249 12.4372 -0.00667945L12.4623 1.99316ZM16.9135 2.46184C18.1784 2.76558 19.2148 3.248 20.048 3.88969L21.265 2.30681C20.1732 1.46599 18.8678 0.875953 17.3742 0.517291L16.9135 2.46184ZM20.0624 3.9006C20.8997 4.52171 21.5384 5.3159 21.9841 6.30025L23.8056 5.48068C23.2227 4.19307 22.3692 3.12579 21.2506 2.29591L20.0624 3.9006ZM21.9841 6.30025C22.4277 7.28019 22.6776 8.50139 22.6964 9.99398L24.6963 9.97576C24.675 8.28111 24.3906 6.7727 23.8056 5.48068L21.9841 6.30025ZM22.6964 9.99398C22.7118 11.22 22.415 12.3099 21.8135 13.2893L23.5189 14.3401C24.3263 13.0254 24.7162 11.562 24.6963 9.97576L22.6964 9.99398ZM21.8168 13.284C21.2075 14.2624 20.3452 15.0829 19.2009 15.7398L20.2012 17.4751C21.6013 16.6713 22.7157 15.6299 23.5156 14.3454L21.8168 13.284ZM19.1963 15.7424C18.0732 16.3951 16.7264 16.8343 15.1346 17.0389L15.3964 19.0225C17.2056 18.7899 18.8158 18.2802 20.2058 17.4724L19.1963 15.7424ZM14.6922 17.2094L13.0889 18.3256L14.2355 19.9682L15.8388 18.852L14.6922 17.2094ZM13.6391 34.1086L3.4208 34.2017L3.44592 36.2015L13.6642 36.1084L13.6391 34.1086ZM4.26193 35.7644L6.7703 32.0617L5.11317 30.9361L2.6048 34.6388L4.26193 35.7644ZM5.95429 32.4988L13.618 32.429L13.5929 30.4292L5.92918 30.499L5.95429 32.4988ZM13.618 32.429C15.1678 32.4149 16.5453 32.1332 17.7106 31.5362L16.7937 29.7556C15.9717 30.1767 14.9181 30.4171 13.5929 30.4292L13.618 32.429ZM17.7051 31.5389C18.8748 30.9488 19.7906 30.1074 20.4149 29.0133L18.6769 28.0177C18.2615 28.7457 17.6482 29.3245 16.7992 29.7528L17.7051 31.5389ZM20.4186 29.0069C21.0377 27.9028 21.3193 26.6359 21.3018 25.2416L19.3019 25.2598C19.3158 26.3653 19.0934 27.275 18.6732 28.0242L20.4186 29.0069ZM21.3018 25.2416C21.2844 23.8579 21.0209 22.609 20.4728 21.5267L18.6891 22.4252C19.0704 23.1782 19.2875 24.1124 19.3019 25.2598L21.3018 25.2416ZM20.4728 21.5267C19.9051 20.4054 19.0231 19.5514 17.8689 18.97L16.974 20.7554C17.7698 21.1563 18.3275 21.7111 18.6891 22.4252L20.4728 21.5267ZM17.8689 18.97C16.7053 18.3838 15.2797 18.1321 13.6496 18.147L13.6748 20.1468C15.1071 20.1338 16.1876 20.3593 16.974 20.7554L17.8689 18.97ZM13.6496 18.147L7.20459 18.2057L7.22971 20.2055L13.6748 20.1468L13.6496 18.147ZM8.21719 19.2094L8.21845 15.5765L6.21837 15.5689L6.21711 19.2018L8.21719 19.2094ZM7.23096 16.5726L16.0431 16.4923L16.018 14.4925L7.20585 14.5727L7.23096 16.5726ZM15.2311 16.0904L16.2085 17.3941L17.8073 16.198L16.83 14.8944L15.2311 16.0904ZM16.935 17.7931C18.4344 17.9078 19.6543 18.3189 20.6349 18.9891L21.7597 17.3393C20.4391 16.4366 18.8661 15.9356 17.0808 15.799L16.935 17.7931ZM20.6426 18.9943C21.6518 19.6705 22.4134 20.5314 22.943 21.5864L24.7299 20.6941C24.0414 19.3226 23.0436 18.1995 21.752 17.3341L20.6426 18.9943ZM22.9476 21.5956C23.4957 22.6599 23.7844 23.8462 23.8011 25.172L25.801 25.1537C25.7808 23.5422 25.4265 22.0468 24.7252 20.6849L22.9476 21.5956ZM23.8011 25.172C23.8259 27.1482 23.4113 28.7523 22.6129 30.0355L24.3122 31.0962C25.3519 29.4251 25.8296 27.4271 25.801 25.1537L23.8011 25.172ZM22.6114 30.0379C21.8179 31.3213 20.6817 32.317 19.1659 33.0226L20.015 34.8362C21.8548 33.9799 23.3 32.7332 24.3136 31.0938L22.6114 30.0379ZM19.1728 33.0193C17.6482 33.7147 15.8124 34.0888 13.6391 34.1086L13.6642 36.1084C16.0533 36.0867 18.1767 35.6747 20.008 34.8394L19.1728 33.0193Z" fill="#3DCFB6" mask="url(#path-1-outside-1_1_4)"/>
</svg>
