<svg width="37" height="28" viewBox="0 0 37 28" fill="none" xmlns="http://www.w3.org/2000/svg">
<mask id="path-1-outside-1_1_3" maskUnits="userSpaceOnUse" x="0" y="0" width="37" height="28" fill="black">
<rect fill="white" width="37" height="28"/>
<path d="M35.125 1.96094V13.2578C35.125 15.8203 34.7344 17.9844 33.9531 19.75C33.1719 21.5312 32.0156 22.8828 30.4844 23.8047C28.9688 24.7422 27.1016 25.2109 24.8828 25.2109C23.3203 25.2109 21.8906 24.8906 20.5938 24.25C19.3125 23.625 18.2188 22.7188 17.3125 21.5312C16.4219 20.3594 15.7578 18.9531 15.3203 17.3125L14.8281 16.0469V5.42969L18.5078 5.38281V13.3984C18.5078 15.0234 18.7891 16.375 19.3516 17.4531C19.9297 18.5312 20.7031 19.3438 21.6719 19.8906C22.6406 20.4375 23.7109 20.7109 24.8828 20.7109C26.1953 20.7109 27.3438 20.4531 28.3281 19.9375C29.3125 19.4219 30.0703 18.6094 30.6016 17.5C31.1484 16.4062 31.4219 14.9922 31.4219 13.2578V6.48438L1 6.48438V1.96094L35.125 1.96094ZM1 21.9063L16.4688 13.6094L16.4922 18.3203L1.28125 26.7344H1V21.9063Z"/>
</mask>
<path d="M35.125 1.96094V13.2578C35.125 15.8203 34.7344 17.9844 33.9531 19.75C33.1719 21.5312 32.0156 22.8828 30.4844 23.8047C28.9688 24.7422 27.1016 25.2109 24.8828 25.2109C23.3203 25.2109 21.8906 24.8906 20.5938 24.25C19.3125 23.625 18.2188 22.7188 17.3125 21.5312C16.4219 20.3594 15.7578 18.9531 15.3203 17.3125L14.8281 16.0469V5.42969L18.5078 5.38281V13.3984C18.5078 15.0234 18.7891 16.375 19.3516 17.4531C19.9297 18.5312 20.7031 19.3438 21.6719 19.8906C22.6406 20.4375 23.7109 20.7109 24.8828 20.7109C26.1953 20.7109 27.3438 20.4531 28.3281 19.9375C29.3125 19.4219 30.0703 18.6094 30.6016 17.5C31.1484 16.4062 31.4219 14.9922 31.4219 13.2578V6.48438L1 6.48438V1.96094L35.125 1.96094ZM1 21.9063L16.4688 13.6094L16.4922 18.3203L1.28125 26.7344H1V21.9063Z" fill="#3DCFB6"/>
<path d="M35.125 1.96094H36.125V0.960938H35.125V1.96094ZM33.9531 19.75L33.0386 19.3454L33.0373 19.3483L33.9531 19.75ZM30.4844 23.8047L29.9686 22.9479L29.9583 22.9542L30.4844 23.8047ZM20.5938 24.25L21.0366 23.3534L21.0322 23.3512L20.5938 24.25ZM17.3125 21.5312L16.5163 22.1363L16.5175 22.1379L17.3125 21.5312ZM15.3203 17.3125L16.2865 17.0548L16.2723 17.0015L16.2523 16.9501L15.3203 17.3125ZM14.8281 16.0469H13.8281V16.2345L13.8961 16.4093L14.8281 16.0469ZM14.8281 5.42969L14.8154 4.42977L13.8281 4.44235V5.42969H14.8281ZM18.5078 5.38281L19.5078 5.38281V4.36999L18.4951 4.38289L18.5078 5.38281ZM19.3516 17.4531L18.4649 17.9157L18.4703 17.9257L19.3516 17.4531ZM30.6016 17.5L29.7071 17.0528L29.7033 17.0604L29.6996 17.0681L30.6016 17.5ZM31.4219 6.48438H32.4219V5.48438H31.4219V6.48438ZM1 6.48438H0V7.48438H1V6.48438ZM1 1.96094V0.960938H0V1.96094H1ZM1 21.9063L0.527334 21.025L0 21.3079V21.9063H1ZM16.4688 13.6094L17.4687 13.6044L17.4605 11.9427L15.9961 12.7281L16.4688 13.6094ZM16.4922 18.3203L16.9762 19.1954L17.4951 18.9083L17.4922 18.3153L16.4922 18.3203ZM1.28125 26.7344V27.7344H1.5394L1.76529 27.6094L1.28125 26.7344ZM1 26.7344H0V27.7344H1V26.7344ZM34.125 1.96094V13.2578H36.125V1.96094H34.125ZM34.125 13.2578C34.125 15.7243 33.7483 17.7416 33.0386 19.3454L34.8676 20.1546C35.7205 18.2271 36.125 15.9164 36.125 13.2578H34.125ZM33.0373 19.3483C32.3315 20.9578 31.3069 22.1423 29.9686 22.948L31.0002 24.6614C32.7243 23.6234 34.0123 22.1047 34.8689 20.1517L33.0373 19.3483ZM29.9583 22.9542C28.6353 23.7726 26.961 24.2109 24.8828 24.2109V26.2109C27.2421 26.2109 29.3022 25.7118 31.0104 24.6551L29.9583 22.9542ZM24.8828 24.2109C23.4614 24.2109 22.1849 23.9207 21.0366 23.3534L20.1509 25.1466C21.5963 25.8606 23.1793 26.2109 24.8828 26.2109V24.2109ZM21.0322 23.3512C19.8976 22.7978 18.9239 21.9944 18.1075 20.9246L16.5175 22.1379C17.5136 23.4431 18.7274 24.4522 20.1553 25.1488L21.0322 23.3512ZM18.1087 20.9262C17.3079 19.8726 16.6956 18.5888 16.2865 17.0548L14.3541 17.5702C14.82 19.3174 15.5358 20.8462 16.5163 22.1363L18.1087 20.9262ZM16.2523 16.9501L15.7601 15.6844L13.8961 16.4093L14.3883 17.6749L16.2523 16.9501ZM15.8281 16.0469V5.42969H13.8281V16.0469H15.8281ZM14.8409 6.42961L18.5206 6.38273L18.4951 4.38289L14.8154 4.42977L14.8409 6.42961ZM17.5078 5.38281V13.3984H19.5078V5.38281L17.5078 5.38281ZM17.5078 13.3984C17.5078 15.1326 17.8072 16.6549 18.465 17.9157L20.2381 16.9906C19.7709 16.0951 19.5078 14.9143 19.5078 13.3984H17.5078ZM18.4703 17.9257C19.1287 19.1536 20.0303 20.1123 21.1803 20.7614L22.1635 19.0198C21.376 18.5752 20.7307 17.9089 20.2329 16.9805L18.4703 17.9257ZM21.1803 20.7614C22.3071 21.3976 23.5482 21.7109 24.8828 21.7109V19.7109C23.8736 19.7109 22.9741 19.4774 22.1635 19.0198L21.1803 20.7614ZM24.8828 21.7109C26.3277 21.7109 27.6408 21.4264 28.7921 20.8233L27.8641 19.0517C27.0467 19.4798 26.0629 19.7109 24.8828 19.7109V21.7109ZM28.7921 20.8233C29.9881 20.1969 30.8895 19.214 31.5035 17.9319L29.6996 17.0681C29.2511 18.0048 28.6369 18.6469 27.8641 19.0517L28.7921 20.8233ZM31.496 17.9472C32.1351 16.6689 32.4219 15.0867 32.4219 13.2578H30.4219C30.4219 14.8977 30.1617 16.1436 29.7071 17.0528L31.496 17.9472ZM32.4219 13.2578V6.48438H30.4219V13.2578H32.4219ZM31.4219 5.48438L1 5.48438V7.48438L31.4219 7.48438V5.48438ZM2 6.48438V1.96094H0V6.48438H2ZM1 2.96094L35.125 2.96094V0.960938L1 0.960938V2.96094ZM1.47267 22.7875L16.9414 14.4906L15.9961 12.7281L0.527334 21.025L1.47267 22.7875ZM15.4688 13.6144L15.4922 18.3253L17.4922 18.3153L17.4687 13.6044L15.4688 13.6144ZM16.0081 17.4453L0.797211 25.8593L1.76529 27.6094L16.9762 19.1954L16.0081 17.4453ZM1.28125 25.7344H1V27.7344H1.28125V25.7344ZM2 26.7344V21.9063H0V26.7344H2Z" fill="#3DCFB6" mask="url(#path-1-outside-1_1_3)"/>
</svg>
