<svg width="160" height="71" viewBox="0 0 160 71" fill="none" xmlns="http://www.w3.org/2000/svg">
<path d="M0.970703 2.40625H9.44336C11.3652 2.40625 12.9883 2.69922 14.3125 3.28516C15.6484 3.87109 16.6621 4.73828 17.3535 5.88672C18.0566 7.02344 18.4082 8.42383 18.4082 10.0879C18.4082 11.2598 18.168 12.332 17.6875 13.3047C17.2188 14.2656 16.5391 15.0859 15.6484 15.7656C14.7695 16.4336 13.7148 16.9316 12.4844 17.2598L11.5352 17.6289H3.57227L3.53711 14.8691H9.54883C10.7676 14.8691 11.7812 14.6582 12.5898 14.2363C13.3984 13.8027 14.0078 13.2227 14.418 12.4961C14.8281 11.7695 15.0332 10.9668 15.0332 10.0879C15.0332 9.10352 14.8398 8.24219 14.4531 7.50391C14.0664 6.76562 13.457 6.19727 12.625 5.79883C11.8047 5.38867 10.7441 5.18359 9.44336 5.18359H4.36328V28H0.970703V2.40625ZM15.9297 28L9.70703 16.3984L13.2402 16.3809L19.5508 27.7891V28H15.9297ZM21.8008 18.7012V18.2969C21.8008 16.9258 22 15.6543 22.3984 14.4824C22.7969 13.2988 23.3711 12.2734 24.1211 11.4062C24.8711 10.5273 25.7793 9.84766 26.8457 9.36719C27.9121 8.875 29.1074 8.62891 30.4316 8.62891C31.7676 8.62891 32.9688 8.875 34.0352 9.36719C35.1133 9.84766 36.0273 10.5273 36.7773 11.4062C37.5391 12.2734 38.1191 13.2988 38.5176 14.4824C38.916 15.6543 39.1152 16.9258 39.1152 18.2969V18.7012C39.1152 20.0723 38.916 21.3438 38.5176 22.5156C38.1191 23.6875 37.5391 24.7129 36.7773 25.5918C36.0273 26.459 35.1191 27.1387 34.0527 27.6309C32.998 28.1113 31.8027 28.3516 30.4668 28.3516C29.1309 28.3516 27.9297 28.1113 26.8633 27.6309C25.7969 27.1387 24.8828 26.459 24.1211 25.5918C23.3711 24.7129 22.7969 23.6875 22.3984 22.5156C22 21.3438 21.8008 20.0723 21.8008 18.7012ZM25.0527 18.2969V18.7012C25.0527 19.6504 25.1641 20.5469 25.3867 21.3906C25.6094 22.2227 25.9434 22.9609 26.3887 23.6055C26.8457 24.25 27.4141 24.7598 28.0938 25.1348C28.7734 25.498 29.5645 25.6797 30.4668 25.6797C31.3574 25.6797 32.1367 25.498 32.8047 25.1348C33.4844 24.7598 34.0469 24.25 34.4922 23.6055C34.9375 22.9609 35.2715 22.2227 35.4941 21.3906C35.7285 20.5469 35.8457 19.6504 35.8457 18.7012V18.2969C35.8457 17.3594 35.7285 16.4746 35.4941 15.6426C35.2715 14.7988 34.9316 14.0547 34.4746 13.4102C34.0293 12.7539 33.4668 12.2383 32.7871 11.8633C32.1191 11.4883 31.334 11.3008 30.4316 11.3008C29.541 11.3008 28.7559 11.4883 28.0762 11.8633C27.4082 12.2383 26.8457 12.7539 26.3887 13.4102C25.9434 14.0547 25.6094 14.7988 25.3867 15.6426C25.1641 16.4746 25.0527 17.3594 25.0527 18.2969ZM46.7266 1V28H43.457V1H46.7266ZM56.7988 28H53.5469V6.97656C53.5469 5.60547 53.793 4.45117 54.2852 3.51367C54.7891 2.56445 55.5098 1.84961 56.4473 1.36914C57.3848 0.876953 58.498 0.630859 59.7871 0.630859C60.1621 0.630859 60.5371 0.654297 60.9121 0.701172C61.2988 0.748047 61.6738 0.818359 62.0371 0.912109L61.8613 3.56641C61.6152 3.50781 61.334 3.4668 61.0176 3.44336C60.7129 3.41992 60.4082 3.4082 60.1035 3.4082C59.4121 3.4082 58.8145 3.54883 58.3105 3.83008C57.8184 4.09961 57.4434 4.49805 57.1855 5.02539C56.9277 5.55273 56.7988 6.20312 56.7988 6.97656V28ZM60.8418 8.98047V11.4766H50.541V8.98047H60.8418ZM10.0938 58.0293H3.60742L3.57227 55.3047H9.46094C10.4336 55.3047 11.2832 55.1406 12.0098 54.8125C12.7363 54.4844 13.2988 54.0156 13.6973 53.4062C14.1074 52.7852 14.3125 52.0469 14.3125 51.1914C14.3125 50.2539 14.1309 49.4922 13.7676 48.9062C13.416 48.3086 12.8711 47.875 12.1328 47.6055C11.4062 47.3242 10.4805 47.1836 9.35547 47.1836H4.36328V70H0.970703V44.4062H9.35547C10.668 44.4062 11.8398 44.541 12.8711 44.8105C13.9023 45.0684 14.7754 45.4785 15.4902 46.041C16.2168 46.5918 16.7676 47.2949 17.1426 48.1504C17.5176 49.0059 17.7051 50.0312 17.7051 51.2266C17.7051 52.2812 17.4355 53.2363 16.8965 54.0918C16.3574 54.9355 15.6074 55.627 14.6465 56.166C13.6973 56.7051 12.584 57.0508 11.3066 57.2031L10.0938 58.0293ZM9.93555 70H2.27148L4.1875 67.2402H9.93555C11.0137 67.2402 11.9277 67.0527 12.6777 66.6777C13.4395 66.3027 14.0195 65.7754 14.418 65.0957C14.8164 64.4043 15.0156 63.5898 15.0156 62.6523C15.0156 61.7031 14.8457 60.8828 14.5059 60.1914C14.166 59.5 13.6328 58.9668 12.9062 58.5918C12.1797 58.2168 11.2422 58.0293 10.0938 58.0293H5.25977L5.29492 55.3047H11.9043L12.625 56.2891C13.8555 56.3945 14.8984 56.7461 15.7539 57.3438C16.6094 57.9297 17.2598 58.6797 17.7051 59.5938C18.1621 60.5078 18.3906 61.5156 18.3906 62.6172C18.3906 64.2109 18.0391 65.5586 17.3359 66.6602C16.6445 67.75 15.666 68.582 14.4004 69.1562C13.1348 69.7188 11.6465 70 9.93555 70ZM30.8008 70.3516C29.4766 70.3516 28.2754 70.1289 27.1973 69.6836C26.1309 69.2266 25.2109 68.5879 24.4375 67.7676C23.6758 66.9473 23.0898 65.9746 22.6797 64.8496C22.2695 63.7246 22.0645 62.4941 22.0645 61.1582V60.4199C22.0645 58.873 22.293 57.4961 22.75 56.2891C23.207 55.0703 23.8281 54.0391 24.6133 53.1953C25.3984 52.3516 26.2891 51.7129 27.2852 51.2793C28.2812 50.8457 29.3125 50.6289 30.3789 50.6289C31.7383 50.6289 32.9102 50.8633 33.8945 51.332C34.8906 51.8008 35.7051 52.457 36.3379 53.3008C36.9707 54.1328 37.4395 55.1172 37.7441 56.2539C38.0488 57.3789 38.2012 58.6094 38.2012 59.9453V61.4043H23.998V58.75H34.9492V58.5039C34.9023 57.6602 34.7266 56.8398 34.4219 56.043C34.1289 55.2461 33.6602 54.5898 33.0156 54.0742C32.3711 53.5586 31.4922 53.3008 30.3789 53.3008C29.6406 53.3008 28.9609 53.459 28.3398 53.7754C27.7188 54.0801 27.1855 54.5371 26.7402 55.1465C26.2949 55.7559 25.9492 56.5 25.7031 57.3789C25.457 58.2578 25.334 59.2715 25.334 60.4199V61.1582C25.334 62.0605 25.457 62.9102 25.7031 63.707C25.9609 64.4922 26.3301 65.1836 26.8105 65.7812C27.3027 66.3789 27.8945 66.8477 28.5859 67.1875C29.2891 67.5273 30.0859 67.6973 30.9766 67.6973C32.125 67.6973 33.0977 67.4629 33.8945 66.9941C34.6914 66.5254 35.3887 65.8984 35.9863 65.1133L37.9551 66.6777C37.5449 67.2988 37.0234 67.8906 36.3906 68.4531C35.7578 69.0156 34.9785 69.4727 34.0527 69.8242C33.1387 70.1758 32.0547 70.3516 30.8008 70.3516ZM49.9609 50.9805V53.4766H39.6777V50.9805H49.9609ZM43.1582 46.3574H46.4102V65.2891C46.4102 65.9336 46.5098 66.4199 46.709 66.748C46.9082 67.0762 47.166 67.293 47.4824 67.3984C47.7988 67.5039 48.1387 67.5566 48.502 67.5566C48.7715 67.5566 49.0527 67.5332 49.3457 67.4863C49.6504 67.4277 49.8789 67.3809 50.0312 67.3457L50.0488 70C49.791 70.082 49.4512 70.1582 49.0293 70.2285C48.6191 70.3105 48.1211 70.3516 47.5352 70.3516C46.7383 70.3516 46.0059 70.1934 45.3379 69.877C44.6699 69.5605 44.1367 69.0332 43.7383 68.2949C43.3516 67.5449 43.1582 66.5371 43.1582 65.2715V46.3574ZM57.0273 43V70H53.7754V43H57.0273ZM56.2539 59.7695L54.9004 59.7168C54.9121 58.416 55.1055 57.2148 55.4805 56.1133C55.8555 55 56.3828 54.0332 57.0625 53.2129C57.7422 52.3926 58.5508 51.7598 59.4883 51.3145C60.4375 50.8574 61.4863 50.6289 62.6348 50.6289C63.5723 50.6289 64.416 50.7578 65.166 51.0156C65.916 51.2617 66.5547 51.6602 67.082 52.2109C67.6211 52.7617 68.0312 53.4766 68.3125 54.3555C68.5938 55.2227 68.7344 56.2832 68.7344 57.5371V70H65.4648V57.502C65.4648 56.5059 65.3184 55.709 65.0254 55.1113C64.7324 54.502 64.3047 54.0625 63.7422 53.793C63.1797 53.5117 62.4883 53.3711 61.668 53.3711C60.8594 53.3711 60.1211 53.541 59.4531 53.8809C58.7969 54.2207 58.2285 54.6895 57.748 55.2871C57.2793 55.8848 56.9102 56.5703 56.6406 57.3438C56.3828 58.1055 56.2539 58.9141 56.2539 59.7695ZM76.8379 54.7598V70H73.5684V50.9805H76.6621L76.8379 54.7598ZM76.1699 59.7695L74.6582 59.7168C74.6699 58.416 74.8398 57.2148 75.168 56.1133C75.4961 55 75.9824 54.0332 76.627 53.2129C77.2715 52.3926 78.0742 51.7598 79.0352 51.3145C79.9961 50.8574 81.1094 50.6289 82.375 50.6289C83.2656 50.6289 84.0859 50.7578 84.8359 51.0156C85.5859 51.2617 86.2363 51.6543 86.7871 52.1934C87.3379 52.7324 87.7656 53.4238 88.0703 54.2676C88.375 55.1113 88.5273 56.1309 88.5273 57.3262V70H85.2754V57.4844C85.2754 56.4883 85.1055 55.6914 84.7656 55.0938C84.4375 54.4961 83.9688 54.0625 83.3594 53.793C82.75 53.5117 82.0352 53.3711 81.2148 53.3711C80.2539 53.3711 79.4512 53.541 78.8066 53.8809C78.1621 54.2207 77.6465 54.6895 77.2598 55.2871C76.873 55.8848 76.5918 56.5703 76.416 57.3438C76.252 58.1055 76.1699 58.9141 76.1699 59.7695ZM88.4922 57.9766L86.3125 58.6445C86.3242 57.6016 86.4941 56.5996 86.8223 55.6387C87.1621 54.6777 87.6484 53.8223 88.2812 53.0723C88.9258 52.3223 89.7168 51.7305 90.6543 51.2969C91.5918 50.8516 92.6641 50.6289 93.8711 50.6289C94.8906 50.6289 95.793 50.7637 96.5781 51.0332C97.375 51.3027 98.043 51.7188 98.582 52.2812C99.1328 52.832 99.5488 53.541 99.8301 54.4082C100.111 55.2754 100.252 56.3066 100.252 57.502V70H96.9824V57.4668C96.9824 56.4004 96.8125 55.5742 96.4727 54.9883C96.1445 54.3906 95.6758 53.9746 95.0664 53.7402C94.4688 53.4941 93.7539 53.3711 92.9219 53.3711C92.207 53.3711 91.5742 53.4941 91.0234 53.7402C90.4727 53.9863 90.0098 54.3262 89.6348 54.7598C89.2598 55.1816 88.9727 55.668 88.7734 56.2188C88.5859 56.7695 88.4922 57.3555 88.4922 57.9766ZM116.389 66.748V56.957C116.389 56.207 116.236 55.5566 115.932 55.0059C115.639 54.4434 115.193 54.0098 114.596 53.7051C113.998 53.4004 113.26 53.248 112.381 53.248C111.561 53.248 110.84 53.3887 110.219 53.6699C109.609 53.9512 109.129 54.3203 108.777 54.7773C108.438 55.2344 108.268 55.7266 108.268 56.2539H105.016C105.016 55.5742 105.191 54.9004 105.543 54.2324C105.895 53.5645 106.398 52.9609 107.055 52.4219C107.723 51.8711 108.52 51.4375 109.445 51.1211C110.383 50.793 111.426 50.6289 112.574 50.6289C113.957 50.6289 115.176 50.8633 116.23 51.332C117.297 51.8008 118.129 52.5098 118.727 53.459C119.336 54.3965 119.641 55.5742 119.641 56.9922V65.8516C119.641 66.4844 119.693 67.1582 119.799 67.873C119.916 68.5879 120.086 69.2031 120.309 69.7188V70H116.916C116.752 69.625 116.623 69.127 116.529 68.5059C116.436 67.873 116.389 67.2871 116.389 66.748ZM116.951 58.4688L116.986 60.7539H113.699C112.773 60.7539 111.947 60.8301 111.221 60.9824C110.494 61.123 109.885 61.3398 109.393 61.6328C108.9 61.9258 108.525 62.2949 108.268 62.7402C108.01 63.1738 107.881 63.6836 107.881 64.2695C107.881 64.8672 108.016 65.4121 108.285 65.9043C108.555 66.3965 108.959 66.7891 109.498 67.082C110.049 67.3633 110.723 67.5039 111.52 67.5039C112.516 67.5039 113.395 67.293 114.156 66.8711C114.918 66.4492 115.521 65.9336 115.967 65.3242C116.424 64.7148 116.67 64.123 116.705 63.5488L118.094 65.1133C118.012 65.6055 117.789 66.1504 117.426 66.748C117.062 67.3457 116.576 67.9199 115.967 68.4707C115.369 69.0098 114.654 69.4609 113.822 69.8242C113.002 70.1758 112.076 70.3516 111.045 70.3516C109.756 70.3516 108.625 70.0996 107.652 69.5957C106.691 69.0918 105.941 68.418 105.402 67.5742C104.875 66.7188 104.611 65.7637 104.611 64.709C104.611 63.6895 104.811 62.793 105.209 62.0195C105.607 61.2344 106.182 60.584 106.932 60.0684C107.682 59.541 108.584 59.1426 109.639 58.873C110.693 58.6035 111.871 58.4688 113.172 58.4688H116.951ZM128.008 55.041V70H124.756V50.9805H127.832L128.008 55.041ZM127.234 59.7695L125.881 59.7168C125.893 58.416 126.086 57.2148 126.461 56.1133C126.836 55 127.363 54.0332 128.043 53.2129C128.723 52.3926 129.531 51.7598 130.469 51.3145C131.418 50.8574 132.467 50.6289 133.615 50.6289C134.553 50.6289 135.396 50.7578 136.146 51.0156C136.896 51.2617 137.535 51.6602 138.062 52.2109C138.602 52.7617 139.012 53.4766 139.293 54.3555C139.574 55.2227 139.715 56.2832 139.715 57.5371V70H136.445V57.502C136.445 56.5059 136.299 55.709 136.006 55.1113C135.713 54.502 135.285 54.0625 134.723 53.793C134.16 53.5117 133.469 53.3711 132.648 53.3711C131.84 53.3711 131.102 53.541 130.434 53.8809C129.777 54.2207 129.209 54.6895 128.729 55.2871C128.26 55.8848 127.891 56.5703 127.621 57.3438C127.363 58.1055 127.234 58.9141 127.234 59.7695ZM147.906 55.041V70H144.654V50.9805H147.73L147.906 55.041ZM147.133 59.7695L145.779 59.7168C145.791 58.416 145.984 57.2148 146.359 56.1133C146.734 55 147.262 54.0332 147.941 53.2129C148.621 52.3926 149.43 51.7598 150.367 51.3145C151.316 50.8574 152.365 50.6289 153.514 50.6289C154.451 50.6289 155.295 50.7578 156.045 51.0156C156.795 51.2617 157.434 51.6602 157.961 52.2109C158.5 52.7617 158.91 53.4766 159.191 54.3555C159.473 55.2227 159.613 56.2832 159.613 57.5371V70H156.344V57.502C156.344 56.5059 156.197 55.709 155.904 55.1113C155.611 54.502 155.184 54.0625 154.621 53.793C154.059 53.5117 153.367 53.3711 152.547 53.3711C151.738 53.3711 151 53.541 150.332 53.8809C149.676 54.2207 149.107 54.6895 148.627 55.2871C148.158 55.8848 147.789 56.5703 147.52 57.3438C147.262 58.1055 147.133 58.9141 147.133 59.7695Z" fill="white"/>
</svg>
